<?xml version="1.0" encoding="UTF-8" standalone="no" ?>
<!DOCTYPE svg PUBLIC "-//W3C//DTD SVG 1.1//EN" "http://www.w3.org/Graphics/SVG/1.1/DTD/svg11.dtd">
<svg xmlns="http://www.w3.org/2000/svg" xmlns:xlink="http://www.w3.org/1999/xlink" version="1.1" width="512" height="512" viewBox="0 0 512 512" xml:space="preserve">
<desc>Created with Fabric.js 5.2.4</desc>
<defs>
</defs>
<g transform="matrix(Infinity NaN NaN Infinity 0 0)" id="585f1e51-fb19-4d12-bd1b-7b21a2e9f41b"  >
</g>
<g transform="matrix(1 0 0 1 256 256)" id="7be6be71-3ba0-4fc0-ae26-153f8b7494ea"  >
<rect style="stroke: none; stroke-width: 1; stroke-dasharray: none; stroke-linecap: butt; stroke-dashoffset: 0; stroke-linejoin: miter; stroke-miterlimit: 4; fill: rgb(255,255,255); fill-rule: nonzero; opacity: 1; visibility: hidden;" vector-effect="non-scaling-stroke"  x="-256" y="-256" rx="0" ry="0" width="512" height="512" />
</g>
<g transform="matrix(0.47 0 0 0.47 256 256)"  >
<path style="stroke: none; stroke-width: 1; stroke-dasharray: none; stroke-linecap: butt; stroke-dashoffset: 0; stroke-linejoin: miter; stroke-miterlimit: 4; fill: rgb(240,126,34); fill-rule: nonzero; opacity: 1;" vector-effect="non-scaling-stroke"  transform=" translate(-178.85, -222.2)" d="M 356.5 138.58 C 350.93 97.37 327.5 68.82000000000001 289.95 51.58000000000001 C 270.44 42.58000000000001 249.70999999999998 39.70000000000001 228.56 39.51000000000001 C 190.96 39.180000000000014 153.36 39.000000000000014 115.76 39.40000000000001 C 102.15 39.54000000000001 92.7 35.140000000000015 85.76 22.860000000000014 C 76.2 5.82 56.28 -2.73 37.57 0.78 C 19.58 4.14 7.34 14.63 2.16 32.21 C -3.16 50.27 1.41 66.38 15.22 79 C 30.39 92.85 48.16 95.31 67 87.41 C 76.34876811489886 83.5372790494286 86.38119359842317 81.58520710788864 96.49999999999996 81.67 C 142.12 81.49 187.70999999999998 80.78 233.32 80.67 C 251.89999999999998 80.67 269.32 85.31 284.98 95.89 C 312.35 114.39 323.17 149.01 310.41 178.07999999999998 C 297.78000000000003 206.82999999999998 268.91 224.07999999999998 237.53000000000003 221.95999999999998 C 222.67000000000002 220.95999999999998 207.76000000000002 220.45999999999998 192.87000000000003 220.26999999999998 C 180.04859091714889 220.03285768319495 167.2695072261439 221.81119861405307 155 225.54000000000002 C 130.1 233.25 103.3 256.82 105.25999999999999 292.95 C 106.16 309.59 105.47999999999999 326.32 105.41999999999999 343 C 105.41999999999999 348.85 101.41999999999999 352.94 96.28999999999999 352.76 C 91.91 352.62 87.63 349.34999999999997 87.66999999999999 342.99 C 87.90999999999998 305.5 87.74999999999999 267.99 88.07 230.52 C 88.06622115022793 223.07985319292388 88.95933012770398 215.66637716936324 90.72999999999999 208.44000000000003 C 98.97999999999999 176.44 118.33999999999999 154.15 150.06 143.57999999999998 C 164.73 138.7 180.06 137.39999999999998 195.44 136.67999999999998 C 216.55 135.67999999999998 237.67 135.05999999999997 258.79 134.26 C 260.08000000000004 134.26 261.37 134.1 262.66 134.01999999999998 C 253.16000000000003 133.15999999999997 243.72000000000003 132.67999999999998 234.28000000000003 132.32999999999998 C 208.61 131.32999999999998 182.93000000000004 129.66 157.28000000000003 132.05999999999997 C 136.72 134 117 139 98.88 149.32 C 84.1 157.7 71.66999999999999 168.60999999999999 62.959999999999994 183.32 C 53.40992260585375 199.49968996181627 48.29787146992122 217.91273244738164 48.14 236.7 C 47.82999999999999 254.58999999999997 48.13999999999999 272.5 48.13999999999999 290.4 L 48.13999999999999 398.15 C 48.135083542175344 398.18984892776535 48.135083542175344 398.2301510722346 48.13999999999999 398.27 C 47.629999999999995 405.03 49.13999999999999 411.12 51.709999999999994 414.76 C 53.75857196480829 420.3198870518918 56.91966894012489 425.4035026397529 61.00000000000003 429.7 L 65.26 434 C 73.62819767044904 440.7417334551471 84.05395181854371 444.41227655400235 94.79999999999998 444.4 C 110.53 444.5 123.8 438.96 133.8 426.78 C 140.53734102618952 418.7980991893477 144.20716506182148 408.675058008933 144.15 398.22999999999996 C 144.21 362.85999999999996 144.47 327.48999999999995 144.64000000000001 292.10999999999996 C 144.6075920151321 285.574752456966 147.22302863623798 279.3049195638874 151.89000000000001 274.72999999999996 C 158.57000000000002 267.90999999999997 166.89000000000001 264.93999999999994 176.26000000000002 264.87999999999994 C 195.06000000000003 264.74999999999994 213.86 265.0799999999999 232.66000000000003 264.87999999999994 C 241.2165217853015 264.9201661159612 249.76598427709226 264.3822749627067 258.25 263.2699999999999 C 281.59 259.8599999999999 303.01 251.34999999999994 320.87 235.69999999999993 C 350.25 209.94 361.68 176.81 356.5 138.58 Z M 44.20999999999998 62.58000000000001 C 39.777995355125995 62.542209547658246 35.54924926785537 60.71542526443615 32.48375533216624 57.514356658372556 C 29.418261396477106 54.31328805230896 27.776075377955017 50.009492126779456 27.929999999999982 45.58000000000001 C 28.012489119251605 36.22243526653462 35.642152529565806 28.69110378066501 45 28.73 C 49.44050153864461 28.69641678218631 53.70527448208541 30.462788237128667 56.82163302062044 33.626250139305405 C 59.93799155915548 36.78971204148215 61.640189876070096 41.080501859899364 61.54 45.519999999999996 C 61.298322434370405 54.94651677077957 53.63909290068103 62.490835763282604 44.209999999999994 62.59 Z M 95.33 415.88 C 86.33 415.88 79.12 408.45 79.11 399.14 C 79.1 389.83 86.78 382.27 96.46000000000001 382.2 C 104.76 382.15 112.16000000000001 389.96 112.19000000000001 398.83 C 112.21782852316986 408.1839248062697 104.68364934412438 415.8030087328845 95.33000000000001 415.88 Z" stroke-linecap="round" />
</g>
</svg>