<svg xmlns="http://www.w3.org/2000/svg" viewBox="0 0 1856.42 464.51"><defs><style>.cls-1{fill:#f07e22;}</style></defs><g id="Layer_2" data-name="Layer 2"><g id="Layer_1-2" data-name="Layer 1"><path class="cls-1" d="M1189.33,300c-12.46-10.92-27.41-16.86-43.7-19.24a131.38,131.38,0,0,0-17.86-1.12c-13.12-.14-26.24.09-39.35,0a23.12,23.12,0,0,1-17-6.87,16.87,16.87,0,0,1-5.05-12.13c-.12-24.69-.3-49.37-.35-74.06a30.67,30.67,0,0,0-7.21-19.93c-7-8.5-16.22-12.36-27.2-12.29a32.82,32.82,0,0,0-20.62,7.29c-1,1-2,2-3,3a30.3,30.3,0,0,0-6.48,10.42c-1.83,2.54-2.85,6.79-2.5,11.52a.17.17,0,0,0,0,.07v75.19c0,12.5-.22,25,0,37.48a74.54,74.54,0,0,0,10.34,37.25c6.08,10.28,14.76,17.88,25.07,23.74,12.65,7.18,26.41,10.69,40.77,12,17.91,1.68,35.83.47,53.75-.19,6.58-.24,13.17-.58,19.8-1.18-.9-.05-1.8-.13-2.7-.17-14.74-.55-29.48-1-44.21-1.68-10.71-.5-21.43-1.41-31.67-4.82-22.13-7.38-35.64-22.92-41.4-45.26a64.92,64.92,0,0,1-1.86-15.41c-.22-26.16-.11-52.33-.28-78.49,0-4.44,3-6.72,6-6.82,3.61-.12,6.35,2.73,6.37,6.81,0,11.64.52,23.32-.12,34.93-1.36,25.22,17.34,41.66,34.72,47a85.45,85.45,0,0,0,26.4,3.69c10.39-.13,20.8-.5,31.17-1.18a51.38,51.38,0,0,1,50.86,30.62c8.91,20.29,1.36,44.45-17.75,57.36a62.62,62.62,0,0,1-36,10.62c-31.83-.08-63.65-.58-95.48-.7a52.81,52.81,0,0,1-20.58-4c-13.16-5.51-25.57-3.8-36.15,5.87-9.64,8.81-12.83,20.05-9.11,32.65,3.61,12.27,12.16,19.59,24.71,21.94,13.06,2.45,27-3.52,33.65-15.41,4.82-8.57,11.41-11.63,20.91-11.54,26.24.28,52.48.16,78.72-.07,14.76-.14,29.23-2.18,42.84-8.43,26.23-12,42.56-32,46.45-60.72C1217.83,341.12,1209.86,318,1189.33,300ZM1008.38,432.74a11.46,11.46,0,0,1-11.54,11.72,11.85,11.85,0,0,1-11.92-11.74,11.47,11.47,0,0,1,11.36-11.89A12.23,12.23,0,0,1,1008.38,432.74Zm35.34-246.56c0,6.19-5.18,11.65-11,11.61a11.94,11.94,0,0,1-12.1-11.82A11.45,11.45,0,0,1,1032,174.28,11.89,11.89,0,0,1,1043.72,186.18Z"/><path class="cls-1" d="M356.5,138.58c-5.57-41.21-29-69.76-66.55-87-19.51-9-40.24-11.88-61.39-12.07-37.6-.33-75.2-.51-112.8-.11-13.61.14-23.06-4.26-30-16.54C76.2,5.82,56.28-2.73,37.57.78,19.58,4.14,7.34,14.63,2.16,32.21-3.16,50.27,1.41,66.38,15.22,79,30.39,92.85,48.16,95.31,67,87.41A75.43,75.43,0,0,1,96.5,81.67c45.62-.18,91.21-.89,136.82-1,18.58,0,36,4.64,51.66,15.22,27.37,18.5,38.19,53.12,25.43,82.19-12.63,28.75-41.5,46-72.88,43.88-14.86-1-29.77-1.5-44.66-1.69A122.45,122.45,0,0,0,155,225.54c-24.9,7.71-51.7,31.28-49.74,67.41.9,16.64.22,33.37.16,50.05,0,5.85-4,9.94-9.13,9.76-4.38-.14-8.66-3.41-8.62-9.77.24-37.49.08-75,.4-112.47a92.58,92.58,0,0,1,2.66-22.08c8.25-32,27.61-54.29,59.33-64.86,14.67-4.88,30-6.18,45.38-6.9,21.11-1,42.23-1.62,63.35-2.42,1.29,0,2.58-.16,3.87-.24-9.5-.86-18.94-1.34-28.38-1.69-25.67-1-51.35-2.67-77-.27C136.72,134,117,139,98.88,149.32c-14.78,8.38-27.21,19.29-35.92,34a106.78,106.78,0,0,0-14.82,53.38c-.31,17.89,0,35.8,0,53.7V398.15a.49.49,0,0,0,0,.12c-.51,6.76,1,12.85,3.57,16.49A43.57,43.57,0,0,0,61,429.7L65.26,434A47,47,0,0,0,94.8,444.4c15.73.1,29-5.44,39-17.62a43.89,43.89,0,0,0,10.35-28.55c.06-35.37.32-70.74.49-106.12a24.17,24.17,0,0,1,7.25-17.38c6.68-6.82,15-9.79,24.37-9.85,18.8-.13,37.6.2,56.4,0a190,190,0,0,0,25.59-1.61c23.34-3.41,44.76-11.92,62.62-27.57C350.25,209.94,361.68,176.81,356.5,138.58Zm-312.29-76a16.43,16.43,0,0,1-16.28-17A17,17,0,0,1,45,28.73,16.42,16.42,0,0,1,61.54,45.52,17.52,17.52,0,0,1,44.21,62.59ZM95.33,415.88c-9,0-16.21-7.43-16.22-16.74s7.67-16.87,17.35-16.94c8.3-.05,15.7,7.76,15.73,16.63A17,17,0,0,1,95.33,415.88Z"/><path class="cls-1" d="M240.32,365.93c0-44.77,34.82-81.25,83.73-81.25s83.73,36.48,83.73,81.25S373,447.45,324.05,447.45,240.32,410.69,240.32,365.93Zm42.28,0c0,24.59,15.75,43.93,41.45,43.93,26,0,41.45-19.34,41.45-43.93,0-24.87-15.48-43.67-41.45-43.67C298.35,322.26,282.6,341.06,282.6,365.93Z"/><path class="cls-1" d="M466.78,302.41l21.06,67.81a5,5,0,0,0,9.45.14l23.28-67.53a22.41,22.41,0,0,1,21.19-15.11h0A22.41,22.41,0,0,1,563,302.94l22.81,67.27a5,5,0,0,0,9.46-.12l21.18-68.2a20.13,20.13,0,0,1,19.23-14.17h1.86a20.14,20.14,0,0,1,19.13,26.42L620.27,425.08a28.09,28.09,0,0,1-26.69,19.33h0a28.08,28.08,0,0,1-26.65-19.25l-20.45-61.69a5,5,0,0,0-9.43,0l-20.88,61.93a28,28,0,0,1-26.51,19h0a28,28,0,0,1-26.57-19.26l-36.1-110a20.89,20.89,0,0,1,19.85-27.4h0A20.89,20.89,0,0,1,466.78,302.41Z"/><path class="cls-1" d="M675.55,366.2c0-55,42.56-81.52,80.42-81.52,46.7,0,80.13,29.85,80.13,84.84v.15a13.75,13.75,0,0,1-13.78,13.67H725.58a5,5,0,0,0-4.41,7.29c6.22,12.06,20.24,22.27,44.47,22.27a61.63,61.63,0,0,0,29.49-7.63,16,16,0,0,1,18.76,2.37l.22.21a16.32,16.32,0,0,1-2.26,25.45c-10.6,7-26.79,14.15-48.7,14.15C708.16,447.45,675.55,415.39,675.55,366.2Zm48.15-10.77h63.55a5,5,0,0,0,4.92-5.81c-2.64-15.05-14.64-28.74-36.2-28.74-21.27,0-34.1,13.62-37.16,28.62A5,5,0,0,0,723.7,355.43Z"/><path class="cls-1" d="M965.43,291.2v34.38a5,5,0,0,1-5,5h0c-26.81,0-52.78,11.88-52.78,53.6v41a19.23,19.23,0,0,1-19.22,19.22h-3.58a19.22,19.22,0,0,1-19.21-19.22V304a16.3,16.3,0,0,1,16.3-16.3h9.41a16.3,16.3,0,0,1,16.3,16.3h0a5,5,0,0,0,8.66,3.33c9.34-10.56,23.07-19.78,43.82-21.12A5,5,0,0,1,965.43,291.2Z"/><path class="cls-1" d="M1339.66,290.45v34.38a5,5,0,0,1-5,5h0c-26.81,0-52.78,11.89-52.78,53.61v41.66a18.6,18.6,0,0,1-18.59,18.59h-4.83a18.59,18.59,0,0,1-18.59-18.59V303.27a16.3,16.3,0,0,1,16.3-16.3h9.41a16.3,16.3,0,0,1,16.3,16.3h0a5,5,0,0,0,8.66,3.33c9.34-10.56,23.07-19.78,43.82-21.12A5,5,0,0,1,1339.66,290.45Z"/><path class="cls-1" d="M1461.17,438.47a5.28,5.28,0,0,0-8.59-4c-9.87,7.74-23.68,12-39.69,12-34.54,0-59.41-16.86-59.41-48.91,0-33.44,32.6-50.3,64.11-50.3a149.18,149.18,0,0,1,35.91,4.38,5,5,0,0,0,6.09-5.42c-2-18.7-14.57-26.87-34.82-26.87-13.35,0-27.14,2.68-37.9,5.84a16.49,16.49,0,0,1-20.26-10.64h0a16.48,16.48,0,0,1,10-20.72,162,162,0,0,1,54.27-9.85c49.19,0,71,24,71,71.85v82.6a5.27,5.27,0,0,1-5.27,5.28h-30.16a5.27,5.27,0,0,1-5.27-5.19Zm-1.3-49.81v-6.92a5,5,0,0,0-3.48-4.75,93.51,93.51,0,0,0-28-4.08c-18,0-32.88,7.46-32.88,21.56,0,14.37,13.27,21.83,29.29,21.83C1443.29,416.3,1459.87,407.18,1459.87,388.66Z"/><path class="cls-1" d="M1566.28,300.35l31.54,80.11a5,5,0,0,0,9.26,0l31.29-80A21.17,21.17,0,0,1,1658.09,287h0a21.18,21.18,0,0,1,19.51,29.44l-45.47,107.43a32.5,32.5,0,0,1-29.91,19.82h0a32.49,32.49,0,0,1-30-19.91l-45.11-107.49A21.12,21.12,0,0,1,1546.63,287h0A21.12,21.12,0,0,1,1566.28,300.35Z"/><path class="cls-1" d="M1695.87,365.45c0-55,42.55-81.52,80.41-81.52,46.7,0,80.14,29.85,80.14,84.84v.15a13.68,13.68,0,0,1-13.68,13.66h-96.85a5,5,0,0,0-4.4,7.3c6.22,12.06,20.23,22.27,44.46,22.27a61.71,61.71,0,0,0,29.5-7.63,16.27,16.27,0,0,1,19,2.58h0a16.32,16.32,0,0,1-2.26,25.45c-10.6,7-26.8,14.15-48.71,14.15C1728.47,446.7,1695.87,414.64,1695.87,365.45ZM1744,354.67h63.56a5,5,0,0,0,4.91-5.8c-2.63-15.05-14.64-28.74-36.2-28.74-21.26,0-34.1,13.62-37.16,28.62A5,5,0,0,0,1744,354.67Z"/></g></g></svg>